PathFileType	4	(X/Y/Z)	c:/Users/goper/Files/vsCode/490R/osim_files/A06/A06_Slow_01.trc
DataRate	CameraRate	NumFrames	NumMarkers	Units                	OrigDataRate	OrigDataStartFrame	OrigNumFrames
120.00	120.00	6	36	mm	120.0	1129	1505
                Frame#	Time	LPSIS			LASIS			LTH1			LTH2			LTH3			LTH4			LLFE			LMFE			LSH1			LSH2			LSH3			LSH4			LLMAL			LMMAL			LCAL			LMTP5			LTOE			LMTP1			RPSIS			RASIS			RTH1			RTH2			RTH3			RTH4			RLFE			RMFE			RSH1			RSH2			RSH3			RSH4			RLMAL			RMMAL			RCAL			RMTP1			RTOE			RMTP5		
		X1	Y1	Z1	X2	Y2	Z2	X3	Y3	Z3	X4	Y4	Z4	X5	Y5	Z5	X6	Y6	Z6	X7	Y7	Z7	X8	Y8	Z8	X9	Y9	Z9	X10	Y10	Z10	X11	Y11	Z11	X12	Y12	Z12	X13	Y13	Z13	X14	Y14	Z14	X15	Y15	Z15	X16	Y16	Z16	X17	Y17	Z17	X18	Y18	Z18	X19	Y19	Z19	X20	Y20	Z20	X21	Y21	Z21	X22	Y22	Z22	X23	Y23	Z23	X24	Y24	Z24	X25	Y25	Z25	X26	Y26	Z26	X27	Y27	Z27	X28	Y28	Z28	X29	Y29	Z29	X30	Y30	Z30	X31	Y31	Z31	X32	Y32	Z32	X33	Y33	Z33	X34	Y34	Z34	X35	Y35	Z35	X36	Y36	Z36

1129	9.40000	-1440.46228	950.15411	300.20450	-1630.03064	909.52338	376.41107	-1458.46130	571.85236	410.89737	-1453.09473	528.88574	407.08167	-1519.34009	553.10394	404.94244	-1502.38220	512.81897	403.25745	-1447.10352	450.68494	395.21988	-1453.41052	442.08414	286.01260	-1345.97449	398.60687	408.47186	-1326.72693	356.29977	413.59531	-1399.29541	366.15082	401.87421	-1374.60547	331.59918	405.78305	-1192.21936	138.79073	371.48645	-1214.28320	141.18770	286.83536	-1129.32129	157.65158	320.67020	-1270.50330	43.16603	393.01648	-1309.26184	49.02839	335.81729	-1292.96814	48.10455	299.29913	-1443.83484	964.17633	168.93874	-1621.12463	938.97363	116.36606	-1592.30115	557.20935	80.51559	-1610.64844	518.13416	80.30321	-1651.67188	576.71368	85.93184	-1661.90796	533.41089	82.97529	-1668.35803	416.50839	106.10543	-1674.55554	419.47189	195.62181	-1692.95544	262.43909	122.12895	-1708.46692	216.41518	124.80904	-1752.81238	275.85181	130.10097	-1759.53137	227.83705	127.18680	-1749.71643	93.31795	114.85646	-1766.94690	102.27744	200.56276	-1703.20251	70.06833	167.60146	-1903.25073	81.02361	186.25374	-1914.27380	94.79385	144.23392	-1888.21375	71.84158	98.34937
1130	9.40833	-1451.21887	951.53955	299.33926	-1640.74402	910.68542	375.17319	-1471.09143	571.54639	409.55310	-1467.00647	528.45984	406.57773	-1532.84045	552.93683	404.75244	-1516.67114	512.72290	403.15561	-1461.86743	449.94882	395.47571	-1468.45422	441.06580	286.44943	-1358.79309	400.48346	408.30862	-1337.93066	358.81885	413.60138	-1411.35352	366.60501	402.20941	-1385.61377	332.65665	405.99048	-1198.87305	144.13101	371.23901	-1221.50281	145.73518	286.65454	-1138.05237	165.94020	319.31808	-1272.34192	44.48434	392.94278	-1310.30371	49.23226	335.89615	-1294.67224	48.36205	299.27972	-1454.45337	965.89288	168.13054	-1631.90234	940.05194	115.47332	-1598.90308	558.15131	79.23527	-1616.85291	518.85065	79.18228	-1658.73108	576.96997	84.45219	-1668.28699	533.46460	81.58521	-1673.52295	416.63763	105.04580	-1678.76855	420.04263	193.90028	-1696.35339	262.56027	121.59378	-1711.38403	216.18056	124.23021	-1756.39795	275.07996	129.16418	-1762.55237	226.93411	126.31786	-1750.96533	92.88187	114.48942	-1768.96167	101.70947	200.02782	-1704.68958	70.39610	167.52721	-1904.82666	78.10058	185.32991	-1915.89661	91.52632	143.22925	-1889.22510	68.81681	97.52512
1131	9.41667	-1461.87354	953.06042	298.51968	-1651.29761	912.15497	373.87714	-1485.36523	570.60919	408.97537	-1481.76160	527.56622	406.27527	-1547.47888	552.95178	404.45480	-1531.80811	512.46179	403.15344	-1477.51099	449.14444	395.89633	-1484.67163	439.84164	286.95706	-1372.88000	402.36768	408.05554	-1350.85803	361.32379	413.46661	-1424.41150	367.15494	402.75433	-1398.15149	333.55515	406.52405	-1206.81873	149.11519	369.98834	-1229.89905	149.67905	287.10028	-1147.55847	174.93501	318.24255	-1274.15784	45.97989	392.72995	-1311.54236	49.66518	335.98611	-1296.66064	48.78157	299.20392	-1464.82153	967.58179	167.36124	-1642.13696	941.44647	114.44804	-1605.60291	559.23798	78.36713	-1622.66431	519.67584	78.32704	-1665.58704	577.34570	83.41521	-1674.70276	533.74243	80.53123	-1678.72046	416.92813	104.25450	-1684.09973	420.52884	193.04630	-1700.03918	261.98242	120.72991	-1714.30396	216.12151	123.73475	-1759.89624	274.40115	128.43547	-1765.48999	226.20868	125.77628	-1752.48291	92.49911	114.33972	-1770.85693	101.21811	199.68961	-1705.97070	70.60487	167.49721	-1906.46411	75.79073	184.65474	-1917.41003	88.41315	142.74026	-1890.40051	65.98347	97.17426
1132	9.42500	-1472.14917	954.61121	297.72083	-1661.61572	913.66125	372.37659	-1500.31641	569.42889	408.44498	-1497.22559	526.56262	406.06277	-1562.75806	552.97241	404.14450	-1547.86389	512.05341	403.19620	-1493.94202	448.53363	396.10715	-1502.34265	438.45996	287.84766	-1387.45557	404.70447	407.36743	-1364.78735	364.16721	412.98062	-1438.49573	367.60681	403.31018	-1411.22522	334.66772	407.01141	-1215.43408	155.27490	369.44604	-1239.23792	154.46831	286.96637	-1158.34448	184.50981	317.10022	-1275.87195	47.74862	392.33109	-1312.85754	50.40676	336.36765	-1299.05042	49.48632	298.95636	-1475.01489	969.18036	166.56416	-1652.16211	942.93085	113.04212	-1612.34229	560.43372	77.48197	-1629.03113	520.65015	77.55081	-1672.58044	577.84973	82.46136	-1681.13171	534.13843	79.79159	-1683.79626	417.28687	103.66545	-1689.29395	420.95465	192.42749	-1703.36438	261.93405	120.46679	-1717.09412	216.08107	123.48244	-1763.34399	273.90707	128.04187	-1768.34827	225.61534	125.43298	-1753.99182	92.15269	114.36279	-1772.35815	100.76384	199.42046	-1707.12195	70.86496	167.48375	-1907.55835	73.24138	184.53110	-1918.76965	85.57095	142.60884	-1891.42261	63.56903	97.02475
1133	9.43333	-1482.35669	956.36951	296.82965	-1672.29822	915.54810	370.71530	-1516.00867	568.25122	408.15195	-1513.76990	525.43524	406.11926	-1578.77185	553.14404	403.99399	-1564.90002	511.86600	403.34760	-1512.11328	447.36011	397.09863	-1520.25085	436.75867	288.30670	-1403.59497	406.84622	407.05484	-1379.81299	366.94864	412.77051	-1453.73218	368.23969	403.94180	-1425.64954	336.13605	407.66019	-1225.32324	161.96652	368.86566	-1249.58167	159.57724	286.82581	-1170.51196	194.67848	315.94797	-1278.69287	50.85996	392.21826	-1315.54614	51.43705	336.60846	-1302.42090	51.00709	298.72665	-1485.07593	970.77612	165.75902	-1661.99719	944.74274	111.88354	-1619.03870	561.73584	76.73949	-1635.29358	521.73224	76.80270	-1679.44629	578.37054	81.75637	-1687.52258	534.63403	79.08239	-1688.82202	417.75970	103.10792	-1694.43848	421.46194	191.88815	-1706.58362	262.46552	120.01875	-1719.61755	216.23055	123.24125	-1766.72168	273.45633	127.77612	-1771.22974	225.19411	125.20305	-1755.32190	91.98081	114.34792	-1773.36743	100.63596	199.38237	-1707.41687	71.88852	167.34953	-1908.78027	70.98306	184.61102	-1920.10815	82.97201	142.74142	-1892.48755	61.34550	97.16409
1134	9.44167	-1492.25476	958.13037	295.89056	-1682.33057	917.63629	368.98386	-1532.27783	566.88965	408.03589	-1530.83435	524.10223	406.27698	-1595.36829	553.39954	403.65405	-1582.32202	511.55594	403.39600	-1530.62988	446.41653	397.79306	-1539.72937	435.10739	289.14542	-1420.87866	408.82889	406.73276	-1395.86584	369.75821	412.50693	-1469.86670	368.90326	404.47586	-1440.89441	337.66156	408.23251	-1236.11255	169.17322	368.25858	-1260.92542	164.99226	286.69193	-1184.04639	205.48022	314.77170	-1281.77710	54.27919	391.78519	-1318.89563	52.69495	336.75241	-1306.34351	52.90867	298.59164	-1494.84094	972.37775	164.85907	-1671.94189	946.31293	109.85270	-1624.98743	562.72272	75.71577	-1641.18677	522.87762	76.02148	-1686.24695	578.86627	81.00043	-1693.83154	535.14832	78.34422	-1693.83069	418.21066	102.57438	-1699.44543	422.39459	191.17928	-1710.43542	262.68384	119.88911	-1722.23669	216.36084	122.93694	-1769.94189	273.11740	127.46567	-1773.92322	224.82123	124.93712	-1756.74255	91.81374	114.36702	-1774.70288	100.40039	199.12761	-1708.24524	72.39802	167.16061	-1909.84863	68.91553	184.65567	-1921.21313	80.62229	142.72359	-1893.28174	59.25893	97.14947
